<svg width="1024" height="1024" viewBox="0 0 1024 1024" fill="none" xmlns="http://www.w3.org/2000/svg">
<rect width="1024" height="1024" rx="85" fill="#1E1E2E"/>
<path d="M334.205 463.181C302.126 463.181 276.121 489.186 276.121 521.265V587.416C276.121 595.801 271.432 603.474 263.989 607.304C258.671 609.859 255 615.296 255 621.591C255 627.885 258.671 633.321 263.989 635.877C271.432 639.706 276.121 647.38 276.121 655.765V721.917C276.121 753.996 302.126 780 334.205 780C342.953 780 350.046 772.908 350.046 764.159C350.046 755.411 342.953 748.318 334.205 748.318C319.623 748.318 307.803 736.499 307.803 721.917V655.765C307.803 643.082 303.363 631.07 295.628 621.591C303.363 612.111 307.803 600.101 307.803 587.416V521.265C307.803 506.684 319.623 494.863 334.205 494.863C342.953 494.863 350.046 487.771 350.046 479.022C350.046 470.274 342.953 463.181 334.205 463.181Z" fill="#ABE9B3"/>
<path d="M689.14 463.181C721.219 463.181 747.224 489.186 747.224 521.265V587.416C747.224 595.801 751.913 603.474 759.356 607.304C764.674 609.859 768.345 615.296 768.345 621.591C768.345 627.885 764.674 633.321 759.356 635.877C751.913 639.706 747.224 647.38 747.224 655.765V721.917C747.224 753.996 721.219 780 689.14 780C680.392 780 673.3 772.908 673.3 764.159C673.3 755.411 680.392 748.318 689.14 748.318C703.723 748.318 715.542 736.499 715.542 721.917V655.765C715.542 643.082 719.982 631.07 727.716 621.591C719.982 612.111 715.542 600.101 715.542 587.416V521.265C715.542 506.684 703.723 494.863 689.14 494.863C680.392 494.863 673.3 487.771 673.3 479.022C673.3 470.274 680.392 463.181 689.14 463.181Z" fill="#ABE9B3"/>
<path d="M421.001 665.139C406.23 665.191 391.776 660.852 379.472 652.676C367.169 644.504 357.57 632.858 351.894 619.219C346.217 605.582 344.719 590.567 347.589 576.074C350.458 561.584 357.566 548.273 368.011 537.827C378.457 527.383 391.769 520.274 406.259 517.404C420.749 514.536 435.766 516.035 449.403 521.709C463.041 527.386 474.687 536.986 482.86 549.288C491.035 561.592 495.374 576.046 495.323 590.818C495.323 610.529 487.493 629.434 473.554 643.371C459.617 657.31 440.713 665.139 421.001 665.139ZM421.001 554.682C413.844 554.631 406.832 556.707 400.856 560.649C394.88 564.588 390.209 570.213 387.434 576.81C384.66 583.409 383.908 590.682 385.273 597.709C386.638 604.737 390.059 611.197 395.103 616.277C400.146 621.356 406.584 624.824 413.601 626.239C420.617 627.653 427.896 626.954 434.514 624.227C441.132 621.5 446.79 616.869 450.773 610.921C454.755 604.972 456.88 597.976 456.881 590.818C456.881 581.279 453.109 572.125 446.388 565.356C439.666 558.588 430.541 554.749 421.001 554.682Z" fill="#ABE9B3"/>
<path d="M605.78 665.139C591.008 665.191 576.554 660.852 564.249 652.676C551.948 644.504 542.348 632.858 536.671 619.219C530.997 605.582 529.498 590.567 532.366 576.074C535.236 561.584 542.345 548.273 552.789 537.827C563.235 527.383 576.546 520.274 591.038 517.404C605.529 514.536 620.544 516.035 634.181 521.709C647.82 527.386 659.465 536.986 667.638 549.288C675.814 561.592 680.152 576.046 680.101 590.818C680.101 600.577 678.179 610.242 674.445 619.26C670.708 628.276 665.234 636.469 658.333 643.371C651.431 650.273 643.238 655.747 634.222 659.481C625.203 663.217 615.539 665.139 605.78 665.139ZM605.78 554.682C598.622 554.631 591.61 556.707 585.634 560.649C579.66 564.588 574.988 570.213 572.212 576.81C569.439 583.409 568.686 590.682 570.052 597.709C571.418 604.737 574.836 611.197 579.88 616.277C584.924 621.356 591.361 624.824 598.378 626.239C605.395 627.653 612.674 626.954 619.291 624.227C625.911 621.5 631.569 616.869 635.552 610.921C639.532 604.972 641.659 597.976 641.659 590.818C641.659 581.279 637.887 572.125 631.167 565.356C624.445 558.588 615.319 554.749 605.78 554.682Z" fill="#ABE9B3"/>
<path d="M550.679 610.039H476.102C471.004 610.039 466.115 608.014 462.51 604.409C458.906 600.805 456.881 595.915 456.881 590.818C456.881 585.721 458.906 580.831 462.51 577.227C466.115 573.622 471.004 571.597 476.102 571.597H550.679C555.777 571.597 560.667 573.622 564.27 577.227C567.876 580.831 569.9 585.721 569.9 590.818C569.9 595.915 567.876 600.805 564.27 604.409C560.667 608.014 555.777 610.039 550.679 610.039Z" fill="#ABE9B3"/>
<path d="M513.204 718.919C504.696 718.939 496.267 717.272 488.407 714.016C480.547 710.759 473.409 705.978 467.407 699.948C465.806 698.23 464.935 695.957 464.976 693.609C465.018 691.261 465.969 689.021 467.629 687.361C469.29 685.7 471.53 684.749 473.878 684.708C476.226 684.666 478.498 685.538 480.216 687.14C489.167 695.498 500.957 700.146 513.204 700.146C525.45 700.146 537.241 695.498 546.192 687.14C547.91 685.538 550.182 684.666 552.529 684.708C554.877 684.749 557.117 685.7 558.778 687.361C560.439 689.021 561.39 691.261 561.431 693.609C561.472 695.957 560.601 698.23 559 699.948C552.998 705.978 545.86 710.759 538 714.016C530.14 717.272 521.712 718.939 513.204 718.919Z" fill="#ABE9B3"/>
<path d="M347.28 445.443C344.373 445.422 341.528 444.601 339.055 443.075C336.582 441.546 334.575 439.37 333.254 436.78C331.48 433.088 331.245 428.841 332.598 424.975C333.952 421.108 336.784 417.936 340.473 416.153C393.727 393.578 451.16 382.541 508.989 383.77H513.321C517.423 383.77 521.359 385.4 524.259 388.302C527.161 391.202 528.79 395.137 528.79 399.24C528.79 403.343 527.161 407.278 524.259 410.18C521.359 413.08 517.423 414.71 513.321 414.71H509.195C456.061 413.856 403.302 423.748 354.086 443.793C352.019 444.977 349.659 445.548 347.28 445.443Z" fill="#ABE9B3"/>
<path d="M678.949 445.443C676.639 445.509 674.355 444.939 672.349 443.793C621.986 422.985 567.788 413.074 513.32 414.71C509.218 414.71 505.282 413.08 502.382 410.18C499.48 407.278 497.851 403.343 497.851 399.24C497.851 395.137 499.48 391.202 502.382 388.302C505.282 385.4 509.218 383.77 513.32 383.77C572.617 381.71 631.639 392.767 686.168 416.153C689.858 417.936 692.69 421.108 694.043 424.973C695.396 428.841 695.161 433.088 693.387 436.78C692.034 439.432 689.963 441.652 687.41 443.182C684.858 444.715 681.925 445.498 678.949 445.443Z" fill="#ABE9B3"/>
<path d="M404.208 373.457H402.351C400.332 373.203 398.383 372.552 396.616 371.543C394.849 370.534 393.298 369.186 392.053 367.577C390.807 365.968 389.892 364.128 389.358 362.164C388.825 360.199 388.684 358.15 388.944 356.131C391.832 331.38 411.221 208.241 468.355 208.241H515.589C519.692 208.241 523.627 209.871 526.527 212.772C529.43 215.673 531.059 219.608 531.059 223.711C531.059 227.814 529.43 231.749 526.527 234.65C523.627 237.551 519.692 239.181 515.589 239.181H468.355C448.967 239.181 427.103 302.916 419.677 360.05C419.175 363.786 417.326 367.21 414.477 369.678C411.629 372.147 407.977 373.49 404.208 373.457Z" fill="#ABE9B3"/>
<path d="M622.021 373.457C618.252 373.49 614.599 372.147 611.751 369.678C608.902 367.21 607.054 363.786 606.551 360.05C599.126 302.916 577.468 239.181 557.873 239.181H511.464C507.362 239.181 503.426 237.551 500.526 234.65C497.624 231.749 495.995 227.814 495.995 223.711C495.995 219.608 497.624 215.673 500.526 212.772C503.426 209.871 507.362 208.241 511.464 208.241H557.873C613.564 208.241 632.746 321.273 637.284 355.925C637.544 357.944 637.404 359.992 636.869 361.958C636.337 363.922 635.422 365.762 634.176 367.37C632.93 368.979 631.379 370.328 629.613 371.337C627.846 372.345 625.896 372.997 623.877 373.251L622.021 373.457Z" fill="#ABE9B3"/>
</svg>
